<?xml version="1.0" encoding="UTF-8" standalone="no"?>
<svg xmlns:xlink="http://www.w3.org/1999/xlink" height="221.6px" width="246.15px" xmlns="http://www.w3.org/2000/svg">
  <g transform="matrix(1.0, 0.0, 0.0, 1.0, 104.35, 109.45)">
    <path d="M69.05 -65.0 Q97.0 -37.05 97.0 2.5 97.0 42.05 69.05 70.05 41.05 98.0 1.5 98.0 -38.05 98.0 -66.0 70.05 -94.0 42.05 -94.0 2.5 -94.0 -37.05 -66.0 -65.0 -38.05 -93.0 1.5 -93.0 41.05 -93.0 69.05 -65.0" fill="#cccccc" fill-rule="evenodd" stroke="none"/>
    <path d="M69.05 -65.0 Q41.05 -93.0 1.5 -93.0 -38.05 -93.0 -66.0 -65.0 -94.0 -37.05 -94.0 2.5 -94.0 42.05 -66.0 70.05 -38.05 98.0 1.5 98.0 41.05 98.0 69.05 70.05 97.0 42.05 97.0 2.5 97.0 -37.05 69.05 -65.0 M1.5 -101.0 Q44.35 -101.0 74.7 -70.65 105.0 -40.35 105.0 2.5 105.0 45.35 74.7 75.7 44.35 106.0 1.5 106.0 -41.35 106.0 -71.65 75.7 -102.0 45.35 -102.0 2.5 -102.0 -40.35 -71.65 -70.65 -41.35 -101.0 1.5 -101.0" fill="#333333" fill-rule="evenodd" stroke="none"/>
    <path d="M137.8 -22.95 L100.3 14.5 62.8 -22.95 100.3 -60.45 137.8 -22.95 M68.5 33.2 L105.95 70.7 68.5 108.15 31.0 70.7 68.5 33.2 M-62.85 -30.5 L-100.35 -67.95 -62.85 -105.45 -25.35 -67.95 -62.85 -30.5" fill="#ffcc00" fill-rule="evenodd" stroke="none"/>
    <path d="M137.8 -22.95 L100.3 14.5 62.8 -22.95 100.3 -60.45 137.8 -22.95 M68.5 33.2 L105.95 70.7 68.5 108.15 31.0 70.7 68.5 33.2 M-62.85 -30.5 L-100.35 -67.95 -62.85 -105.45 -25.35 -67.95 -62.85 -30.5" fill="none" stroke="#333333" stroke-linecap="round" stroke-linejoin="round" stroke-width="8.0"/>
  </g>
</svg>
