<?xml version="1.0" encoding="UTF-8" standalone="no"?>
<svg xmlns:xlink="http://www.w3.org/1999/xlink" height="207.0px" width="207.0px" xmlns="http://www.w3.org/2000/svg">
  <g transform="matrix(1.0, 0.0, 0.0, 1.0, 102.0, 101.0)">
    <path d="M69.05 -65.0 Q97.0 -37.05 97.0 2.5 97.0 42.05 69.05 70.05 41.05 98.0 1.5 98.0 -38.05 98.0 -66.0 70.05 -94.0 42.05 -94.0 2.5 -94.0 -37.05 -66.0 -65.0 -38.05 -93.0 1.5 -93.0 41.05 -93.0 69.05 -65.0" fill="#cccccc" fill-rule="evenodd" stroke="none"/>
    <path d="M69.05 -65.0 Q41.05 -93.0 1.5 -93.0 -38.05 -93.0 -66.0 -65.0 -94.0 -37.05 -94.0 2.5 -94.0 42.05 -66.0 70.05 -38.05 98.0 1.5 98.0 41.05 98.0 69.05 70.05 97.0 42.05 97.0 2.5 97.0 -37.05 69.05 -65.0 M1.5 -101.0 Q44.35 -101.0 74.7 -70.65 105.0 -40.35 105.0 2.5 105.0 45.35 74.7 75.7 44.35 106.0 1.5 106.0 -41.35 106.0 -71.65 75.7 -102.0 45.35 -102.0 2.5 -102.0 -40.35 -71.65 -70.65 -41.35 -101.0 1.5 -101.0" fill="#333333" fill-rule="evenodd" stroke="none"/>
  </g>
</svg>
