<?xml version="1.0" encoding="UTF-8" standalone="no"?>
<svg xmlns:xlink="http://www.w3.org/1999/xlink" height="215.45px" width="246.15px" xmlns="http://www.w3.org/2000/svg">
  <g transform="matrix(1.0, 0.0, 0.0, 1.0, 104.35, 109.45)">
    <path d="M69.05 -65.0 Q97.0 -37.05 97.0 2.5 97.0 8.9 96.3 15.0 92.45 46.55 69.05 70.05 47.05 92.0 18.0 96.7 10.0 98.0 1.5 98.0 -38.05 98.0 -66.0 70.05 -94.0 42.05 -94.0 2.5 -94.0 -37.05 -66.0 -65.0 -38.05 -93.0 1.5 -93.0 41.05 -93.0 69.05 -65.0" fill="#cccccc" fill-rule="evenodd" stroke="none"/>
    <path d="M69.05 -65.0 Q41.05 -93.0 1.5 -93.0 -38.05 -93.0 -66.0 -65.0 -94.0 -37.05 -94.0 2.5 -94.0 42.05 -66.0 70.05 -38.05 98.0 1.5 98.0 10.0 98.0 18.0 96.7 47.05 92.0 69.05 70.05 92.45 46.55 96.3 15.0 97.0 8.9 97.0 2.5 97.0 -37.05 69.05 -65.0 M1.5 -101.0 Q44.35 -101.0 74.7 -70.65 105.0 -40.35 105.0 2.5 105.0 8.9 104.35 15.0 100.5 49.9 74.7 75.7 50.35 100.0 18.0 104.8 L1.5 106.0 Q-41.35 106.0 -71.65 75.7 -102.0 45.35 -102.0 2.5 -102.0 -40.35 -71.65 -70.65 -41.35 -101.0 1.5 -101.0" fill="#333333" fill-rule="evenodd" stroke="none"/>
    <path d="M137.8 -22.95 L100.3 14.5 62.8 -22.95 100.3 -60.45 137.8 -22.95 M-62.85 -30.5 L-100.35 -67.95 -62.85 -105.45 -25.35 -67.95 -62.85 -30.5" fill="#ffcc00" fill-rule="evenodd" stroke="none"/>
    <path d="M-25.0 82.65 L-90.0 82.65 -55.5 32.15 -25.0 82.65" fill="#33cc00" fill-rule="evenodd" stroke="none"/>
    <path d="M137.8 -22.95 L100.3 14.5 62.8 -22.95 100.3 -60.45 137.8 -22.95 M-62.85 -30.5 L-100.35 -67.95 -62.85 -105.45 -25.35 -67.95 -62.85 -30.5 M-25.0 82.65 L-90.0 82.65 -55.5 32.15 -25.0 82.65" fill="none" stroke="#333333" stroke-linecap="round" stroke-linejoin="round" stroke-width="8.0"/>
  </g>
</svg>
