<svg width="551" height="431" xmlns="http://www.w3.org/2000/svg">
 <!-- Created with Method Draw - http://github.com/duopixel/Method-Draw/ -->

 <g>
  <title>background</title>
  <rect x="-1" y="-1" width="553" height="433" id="canvas_background" fill="#fff"/>
  <g id="canvasGrid" display="none">
   <rect id="svg_1" width="100%" height="100%" x="0" y="0" stroke-width="0" fill="url(#gridpattern)"/>
  </g>
 </g>
 <g>
  <title>Layer 1</title>
  <g id="svg_15" stroke="null">
   <g transform="matrix(0.493254839997106,0,0,0.493254839997106,-1371.314732186474,-819.4721242975205) " id="svg_4" stroke="null">
    <path d="m3668.29529,2035.50042l-56.4,0q-17.4,0 -29.7,-12.3q-12.3,-12.3 -12.3,-29.7l0,-87.2q0,-17.4 -12.3,-29.7q-12.3,-12.3 -29.7,-12.3l-96.4,0m220.25,328l-56.4,0q-17.4,0 -29.7,-12.3q-12.3,-12.3 -12.3,-29.7l0,-230q0,-17.4 -12.3,-29.7q-12.3,-12.3 -39.25,-3.7l-70.3,-4.95" fill="none" stroke-linecap="round" stroke-linejoin="round" stroke-width="10" id="svg_5" stroke="#cccccc"/>
    <path d="m3363.24529,1764.60042l-108.95,155.65q-3.6,5.05 -1.7,8.65q1.9,3.6 8.1,3.6l250,0q3.75,0 7.8,-1.3q-6.75,3.4 -12.8,3.4l-250,0q-6.2,0 -8.05,-3.6q-1.9,-3.6 1.7,-8.7l108.95,-155.6q3.55,-5.1 10.5,-8.7q2.7,-1.45 5.3,-2.25l-0.35,0.15q-6.95,3.6 -10.5,8.7" fill="#999999" fill-rule="evenodd" id="svg_6"/>
    <path d="m3459.24529,1936.05042q1.25,2.85 1.3,5.95q0,12.95 -22.65,22.1q-22.6,9.15 -54.55,9.15q-32,0 -54.6,-9.15q-22.6,-9.15 -22.6,-22.1l0.25,-2.6q4.1,9.2 21.3,16.15q22.6,9.15 54.6,9.15q31.95,0 54.55,-9.15q20.3,-8.2 22.4,-19.5" fill="#999999" fill-rule="evenodd" id="svg_7"/>
    <path d="m3306.39529,1939.40042q-1.3,-2.85 -1.3,-5.95q0,-12.95 22.6,-22.1q22.6,-9.15 54.6,-9.15l9.35,0.25l5,0.25q21.9,1.55 38.75,8.1l1.45,0.55l3.55,1.55q19.05,8.7 19.1,20.55l-0.25,2.6q-2.1,11.3 -22.4,19.5q-22.6,9.15 -54.55,9.15q-32,0 -54.6,-9.15q-17.2,-6.95 -21.3,-16.15" fill="#cccccc" fill-rule="evenodd" id="svg_8"/>
    <path d="m3253.94529,1721.65042q4.3,-4.2 10.35,-4.2l250,0q6.2,0 10.6,4.4q4.4,4.4 4.4,10.6l0,190q0,6.2 -4.4,10.6q-1.75,1.75 -3.7,2.8q-3.15,1.6 -6.9,1.6l-250,0q-6.2,0 -10.6,-4.4q-4.4,-4.4 -4.4,-10.6l0,-190q0,-6.2 4.4,-10.6l0.25,-0.2" fill="#cccccc" fill-rule="evenodd" id="svg_9"/>
    <path d="m3253.94529,1721.65042l-0.25,0.2q-4.4,4.4 -4.4,10.6l0,190q0,6.2 4.4,10.6q4.4,4.4 10.6,4.4l250,0q3.75,0 6.9,-1.6q-4.35,4.15 -10.4,4.15l-250,0q-6.2,0 -10.6,-4.4q-4.4,-4.4 -4.4,-10.6l0,-190q0,-6.2 4.4,-10.6q1.75,-1.75 3.75,-2.75" fill="#999999" fill-rule="evenodd" id="svg_10"/>
    <path d="m3500.04529,1736.05042q3.95,0 6.7,2.65q2.75,2.7 2.75,6.55l0,163.35q0,3.8 -2.75,6.45q-2.75,2.7 -6.7,2.7l-221.25,0q-3.95,0 -6.75,-2.7q-2.75,-2.65 -2.7,-6.45l0,-163.35q-0.05,-3.85 2.7,-6.55q2.8,-2.65 6.75,-2.65l221.25,0" fill="#666666" fill-rule="evenodd" id="svg_11"/>
    <path d="m3494.79529,1739.00042q2.9,0 4.95,2.05q2.05,2.05 2.05,4.95l0,160q0,2.9 -2.05,4.95q-2.05,2.05 -4.95,2.05l-210,0q-2.9,0 -4.95,-2.05q-2.05,-2.05 -2.05,-4.95l0,-160q0,-2.9 2.05,-4.95q2.05,-2.05 4.95,-2.05l210,0" fill="#333333" fill-rule="evenodd" id="svg_12"/>
    <path d="m3486.29529,1924.25042q0,1.15 -0.8,1.95q-0.8,0.8 -1.95,0.8q-1.15,0 -1.95,-0.8q-0.8,-0.8 -0.8,-1.95q0,-1.15 0.8,-1.95q0.8,-0.8 1.95,-0.8q1.15,0 1.95,0.8q0.8,0.8 0.8,1.95" fill="#999999" fill-rule="evenodd" id="svg_13"/>
    <path d="m3486.29529,1924.25042q0,-1.15 -0.8,-1.95q-0.8,-0.8 -1.95,-0.8q-1.15,0 -1.95,0.8q-0.8,0.8 -0.8,1.95q0,1.15 0.8,1.95q0.8,0.8 1.95,0.8q1.15,0 1.95,-0.8q0.8,-0.8 0.8,-1.95z" fill="none" stroke-linecap="round" stroke-linejoin="round" id="svg_14" stroke="#e0dfe3"/>
   </g>
  </g>
  <g id="svg_30" stroke="null">
   <g transform="matrix(0.9892394569686309,0,0,0.9892394569686309,248.71671471803043,169.5559290625545) " id="svg_28" stroke="null">
    <path d="m-177.55165,-44.62734l-11.1,0l0,-24q0,-2.9 2.05,-4.95q2.05,-2.05 4.95,-2.05l91.95,0q2.9,0 4.95,2.05q2.05,2.05 2.05,4.95l0,58l-24,0l0,-49.1q0,-2.9 -2.05,-4.94999q-2.05,-2.05 -4.95,-2.05l-56.85,0q-2.9,0 -4.95,2.05q-2.05,2.04999 -2.05,4.95l0,15.1" fill="#cccccc" fill-rule="evenodd" id="svg_29"/>
   </g>
  </g>
  <g id="svg_24" stroke="null">
   <g transform="matrix(0.9960795123217943,0,0,0.9960795123217943,121.40209151661665,-42.95115706471512) " id="svg_20" stroke="null">
    <path d="m38.79841,346.35816q1,0.25 1.35,0.64999l7.3,8.7q0.3,0.35 -0.25,0.65l-1.75,0.25l-6.15,0l10,29.75q-18.1,-6.25 -24.1,1.75l-31.05,-15.75l-13.25,-15.75l-5.55,0l-2.2,-0.25q-1.05,-0.3 -1.35,-0.65l-7.3,-8.7q-0.3,-0.39999 0.3,-0.64999l1.75,-0.25l5.55,0l-7.3,-8.7q-0.35,-0.4 0.25,-0.65l1.75,-0.25l52.8,0l2.2,0.25q1.05,0.25 1.4,0.65l7.3,8.7l6.1,0l2.2,0.25" fill="#cccccc" fill-rule="evenodd" id="svg_21"/>
    <path d="m4.04841,222.25815l0,-27q0,-1.15 0.8,-2q0.85,-0.8 2,-0.8l53.4,0q1.15,0 2,0.8q0.8,0.85 0.85,2l0,27l5.6,0q1.15,0 1.95,0.8q0.85,0.85 0.85,2l0,27q0,1.15001 -0.85,1.95q-0.8,0.85 -1.95,0.85l-5.6,0l0,48.95l-0.4,1l0.4,-1l-14.05,42.80001q-15.35,-7.45 -30.75,0l-14.25,-42.80001l0,-48.94999l-6.2,0q-1.15,0 -2,-0.85q-0.8,-0.8 -0.8,-1.95l0,-27q0,-1.15 0.8,-2q0.85,-0.8 2,-0.8l6.2,0" fill="#999999" fill-rule="evenodd" id="svg_22"/>
    <path d="m63.24841,195.40815l0,27l5.6,0q0.6,-0.19999 1.7,0.5q1.05,0.7 1.1,2.45l0,26.85q-0.4,1.4 -1,2.05l-1.25,0.75l-5.5,0l-0.65,48.95l-14.45,42.2q-7.05,-3.75 -18.9,-3.2l16.1,-6.55q15.35,-25.85 12.45,-81.65l4.8,0l0,-32.35l-7.35,0l0,-29.8l4.5,0q1.55,0.1 2.15,1.1q0.6,1 0.7,1.7" fill="#cccccc" fill-rule="evenodd" id="svg_23"/>
   </g>
  </g>
  <g id="svg_52" stroke="null">
   <g transform="matrix(1.0285898294916134,0,0,1.0285898294916134,94.91566082797615,82.03013819298339) " id="svg_47" stroke="null">
    <path d="m164.92568,195.46616q0,11.05001 -4.8,18.85q-4.85,7.8 -11.7,7.8q-6.8,0 -11.65,-7.8q-4.85,-7.8 -4.85,-18.85q0,-11 4.85,-18.8q4.85,-7.8 11.65,-7.8q6.85,0 11.7,7.8q4.8,7.8 4.8,18.8" fill="#999999" fill-rule="evenodd" id="svg_48"/>
    <path d="m259.12568,97.66617q4.8,7.8 4.8,18.8q0,11.05 -4.8,18.85q-4.85,7.8 -11.7,7.8q-6.8,0 -11.65,-7.8q-4.85,-7.8 -4.85,-18.85q0,-11 4.85,-18.8q4.85,-7.8 11.65,-7.8q6.85,0 11.7,7.8" fill="#999999" fill-rule="evenodd" id="svg_49"/>
    <path d="m206.17568,114.96617l17,0" fill="none" stroke-linecap="round" stroke-linejoin="round" stroke-width="2" id="svg_50" stroke="#ec6d1e"/>
    <path d="m161.17568,130.96616l-10,32" fill="none" stroke-linecap="round" stroke-linejoin="round" stroke-width="2" id="svg_51" stroke="#ec6d1e"/>
   </g>
  </g>
  <g id="svg_59" stroke="null">
   <g transform="matrix(1.0273756617615906,0,0,1.0273756617615906,51.84356052401887,38.957581551068444) " id="svg_56" stroke="null">
    <path d="m405.6619,139.11043l-0.8,44l-1.1,2.05001l-1.4,0.8l-1.2,0.25l-44.75,0l-1.15,-0.25l-1.4,-0.8l-1.15,-2.05001l-0.8,-43.94999l0.45,-2.95l2.2,-2.1l0.25,-0.1l1.25,-0.15l45.45,0l1.25,0.15l0.2,0.1l2.25,2.1l0.45,2.9" fill="#999999" fill-rule="evenodd" id="svg_57"/>
    <path d="m402.5619,124.76044l0.4,0.25l1.95,1.95l1.1,5.05l0.05,0.05l1.05,6.35l-0.4,43.65l-0.8,2.75l-0.65,0.65l-2.45,1.55l-1.75,0.4l-44.55,0l-1.75,-0.4l-2.45,-1.55l-0.65,-0.7l-0.8,-2.7l-0.4,-43.65l1.45,-8.45l0.2,-0.7l0.05,-0.15l0.55,-2.15l1.95,-1.95l0.4,-0.25l2.3,-0.5l42.9,0l2.3,0.5m3.1,14.35l-0.45,-2.9l-2.25,-2.1l-0.2,-0.1l-1.25,-0.15l-45.45,0l-1.25,0.15l-0.25,0.1l-2.2,2.1l-0.45,2.95l0.8,43.95l1.15,2.05l1.4,0.8l1.15,0.25l44.75,0l1.2,-0.25l1.4,-0.8l1.1,-2.05l0.8,-44" fill="#888888" fill-rule="evenodd" id="svg_58"/>
   </g>
  </g>
  <g id="svg_63" stroke="null">
   <g transform="matrix(1.0273756617615906,0,0,1.0273756617615906,51.84356052401887,38.957581551068444) " id="svg_62" stroke="null">
    <path d="m404.68855,216.00539l-0.8,44l-1.1,2.05l-1.4,0.8l-1.2,0.25l-44.75,0l-1.15,-0.25l-1.4,-0.8l-1.15,-2.05l-0.8,-43.95l0.45,-2.95l2.2,-2.1l0.25,-0.1l1.25,-0.15l45.45,0l1.25,0.15l0.2,0.1l2.25,2.1l0.45,2.9" fill="#999999" fill-rule="evenodd" id="svg_60"/>
    <path d="m401.58855,201.65539l0.4,0.25l1.95,1.95l1.1,5.05l0.05,0.05l1.05,6.35l-0.4,43.65l-0.8,2.75l-0.65,0.65l-2.45,1.55l-1.75,0.4l-44.55,0l-1.75,-0.4l-2.45,-1.55l-0.65,-0.7l-0.8,-2.7l-0.4,-43.65l1.45,-8.45l0.2,-0.7l0.05,-0.15l0.55,-2.15l1.95,-1.95l0.4,-0.25l2.3,-0.5l42.9,0l2.3,0.5m3.1,14.35l-0.45,-2.9l-2.25,-2.1l-0.2,-0.1l-1.25,-0.15l-45.45,0l-1.25,0.15l-0.25,0.1l-2.2,2.1l-0.45,2.95l0.8,43.95l1.15,2.05l1.4,0.8l1.15,0.25l44.75,0l1.2,-0.25l1.4,-0.8l1.1,-2.05l0.8,-44" fill="#888888" fill-rule="evenodd" id="svg_61"/>
   </g>
  </g>
  <g id="svg_67" stroke="null">
   <g transform="matrix(1.0273756617615906,0,0,1.0273756617615906,51.84356052401887,38.957581551068444) " id="svg_66" stroke="null">
    <path d="m51.36112,285.11351l-0.8,44l-1.1,2.05l-1.4,0.8l-1.2,0.25l-44.75,0l-1.15,-0.25l-1.4,-0.8l-1.15,-2.05l-0.8,-43.95l0.45,-2.95l2.2,-2.1l0.25,-0.1l1.25,-0.15l45.45,0l1.25,0.15l0.2,0.1l2.25,2.1l0.45,2.9" fill="#999999" fill-rule="evenodd" id="svg_64"/>
    <path d="m48.26112,270.76351l0.4,0.25l1.95,1.95l1.1,5.05l0.05,0.05l1.05,6.35l-0.4,43.65l-0.8,2.75l-0.65,0.65l-2.45,1.55l-1.75,0.4l-44.55,0l-1.75,-0.4l-2.45,-1.55l-0.65,-0.7l-0.8,-2.7l-0.4,-43.65l1.45,-8.45l0.2,-0.7l0.05,-0.15l0.55,-2.15l1.95,-1.95l0.4,-0.25l2.3,-0.5l42.9,0l2.3,0.5m3.1,14.35l-0.45,-2.9l-2.25,-2.1l-0.2,-0.1l-1.25,-0.15l-45.45,0l-1.25,0.15l-0.25,0.1l-2.2,2.1l-0.45,2.95l0.8,43.95l1.15,2.05l1.4,0.8l1.15,0.25l44.75,0l1.2,-0.25l1.4,-0.8l1.1,-2.05l0.8,-44" fill="#888888" fill-rule="evenodd" id="svg_65"/>
   </g>
  </g>
  <g id="svg_77" stroke="null">
   <g transform="matrix(1.0000911991185024,0,0,1.0000911991185024,-1724.5910961300767,-1724.451170776318) " id="svg_71" stroke="null">
    <path d="m1902.26532,2088.51998l0.1,-1.2q0,-4.45 -6.15,-7.6q-6.2,-3.1 -14.95,-3.1q-8.75,0 -14.95,3.1q-6.2,3.15 -6.2,7.6l0.15,1.2q0.2,1.05 0.8,2q1.45,2.44999 5.25,4.35q6.2,3.15 14.95,3.15q8.75,0 14.95,-3.15q3.8,-1.90001 5.25,-4.35q0.6,-0.95 0.8,-2m13.65,1.75l0,0.25q-0.2,7.19999 -10.3,12.35q-10.3,5.19999 -24.9,5.19999q-14.6,0 -24.9,-5.19999q-10.1,-5.15001 -10.3,-12.35l0,-0.25l0.15,-1.75q1.05,-6.30001 10.15,-10.9q10.3,-5.2 24.9,-5.2q14.6,0 24.9,5.2q9.05,4.59999 10.15,10.9q0.15,0.85 0.15,1.75" fill="#999999" fill-rule="evenodd" id="svg_72"/>
    <path d="m1902.26532,2088.51998q-0.2,1.05 -0.8,2q-1.45,2.44999 -5.25,4.35q-6.2,3.15 -14.95,3.15q-8.75,0 -14.95,-3.15q-3.8,-1.90001 -5.25,-4.35q-0.6,-0.95 -0.8,-2l-0.15,-1.2q0,-4.45 6.2,-7.6q6.2,-3.1 14.95,-3.1q8.75,0 14.95,3.1q6.15,3.15 6.15,7.6l-0.1,1.2" fill="#666666" fill-rule="evenodd" id="svg_73"/>
    <path d="m2234.31532,2094.51998q-2.25,1.85 -5.85,3.15q-3.6,1.3 -6.5,1.35l-181,0q-2.9,-0.05001 -3.4,-1.35q-0.5,-1.3 1.75,-3.15l32.15,-27q2.2,-1.85 5.85,-3.15q3.6,-1.35 6.5,-1.35l181,0q2.9,0 3.4,1.35q0.45,1.3 -1.75,3.15l-32.15,27" fill="#cccccc" fill-rule="evenodd" id="svg_74"/>
    <path d="m2200.91532,2053.76998q16.45,-1.95 10.45,-4.15q-6,-2.2 -12.95,-1.05001l-149,0q-2.9,0 -4.95,2.05001q-1.05,1.05 -1.55,2.3q-0.5,1.2 -0.5,2.65l0,6q1.75,-5.2 7,-6q58.5,-5.7 151.5,-1.8m25.95,-7.65q2.05,2.05 2.05,4.94999l0,41.95q0,2.9 -2.05,4.95q-2.05,2.05 -4.95,2.05l-181,0q-2.9,0 -4.95,-2.05q-2.05,-2.05 -2.05,-4.95l0,-41.95q0,-2.9 2.05,-4.95q2.05,-2.05 4.95,-2.05l181,0q2.9,0 4.95,2.05" fill="#999999" fill-rule="evenodd" id="svg_75"/>
    <path d="m2200.91532,2053.76998q-93,-3.9 -151.5,1.8q-5.25,0.8 -7,6l0,-6q0,-1.45 0.5,-2.65q0.5,-1.25 1.55,-2.3q2.05,-2.05001 4.95,-2.05001l149,0q6.95,-1.15 12.95,1.05001q6,2.19999 -10.45,4.15" fill="#cccccc" fill-rule="evenodd" id="svg_76"/>
   </g>
  </g>
  <g id="svg_99" stroke="null">
   <g transform="matrix(0.9721364076867394,0,0,0.9721364076867394,422.8608967477786,44.1275178455311) " id="svg_96" stroke="null">
    <path d="m-164.05671,0.13386l0,69l86,0" fill="none" stroke-linecap="round" stroke-linejoin="round" stroke-width="2" id="svg_97" stroke="#cccccc"/>
    <path d="m-120.65671,27.13386l0,6l0,6m0,-24l0,6m0,-18l0,6m6.4,24l-6,0m18,0l-6,0m18,0l-6,0m18,0l-6,0m-36.4,24l0,6m0,-18l0,6m-36,-18l-6,0m18,0l-6,0m18,0l-6,0m18,0l-6,0" fill="none" stroke-linecap="round" stroke-linejoin="round" id="svg_98" stroke="#cccccc"/>
   </g>
  </g>
  <text stroke="#000" transform="matrix(2.30691739955472,0,0,4.527954467163467,-624.5236444056317,-681.6750128071926) " xml:space="preserve" text-anchor="start" font-family="Helvetica, Arial, sans-serif" font-size="24" id="svg_2" y="209.953125" x="475" stroke-width="0" fill="#ec6d1e">}</text>
  <text font-weight="bold" stroke="#000" transform="rotate(-90 499.6632690429688,238.93156433105466) matrix(0.8051156924358338,0,0,0.8777591005405538,81.51878577422798,-12.768676364766122) " xml:space="preserve" text-anchor="start" font-family="Helvetica, Arial, sans-serif" font-size="24" id="svg_16" y="295.720224" x="428.603291" stroke-opacity="null" stroke-width="0" fill="#ec6d1e">Color Detectors</text>
  <text font-weight="bold" stroke="#000" transform="matrix(1.2293319702148438,0,0,1.2293319702148438,-79.1195297241211,-72.68748462200165) " xml:space="preserve" text-anchor="start" font-family="Helvetica, Arial, sans-serif" font-size="24" id="svg_17" y="350.341424" x="361.268999" stroke-opacity="null" stroke-width="0" fill="#000000">Laser</text>
  <text stroke="#000" transform="matrix(0.9434453843510794,0,0,0.9434453843510794,13.192196195535088,13.781320930892473) " font-weight="bold" xml:space="preserve" text-anchor="start" font-family="Helvetica, Arial, sans-serif" font-size="24" id="svg_18" y="193.461322" x="121.262295" stroke-opacity="null" stroke-width="0" fill="#000000">Flow</text>
  <text stroke="#000" transform="matrix(0.9789216925403111,0,0,0.9789216925403111,3.3003355940892343,2.658286839028759) " font-weight="bold" xml:space="preserve" text-anchor="start" font-family="Helvetica, Arial, sans-serif" font-size="24" id="svg_19" y="219.143293" x="102.518099" stroke-opacity="null" stroke-width="0" fill="#000000">Chamber</text>
  <text font-weight="bold" font-style="normal" xml:space="preserve" text-anchor="start" font-family="Helvetica, Arial, sans-serif" font-size="15" id="svg_25" y="21.953125" x="246" stroke-opacity="null" stroke-width="0" stroke="#000" fill="#ec6d1e">Computer Data</text>
  <text font-weight="bold" xml:space="preserve" text-anchor="start" font-family="Helvetica, Arial, sans-serif" font-size="20" id="svg_26" y="207.953125" x="238" stroke-opacity="null" stroke-width="0" stroke="#000" fill="#ec6d1e">Filters</text>
  <text font-weight="bold" xml:space="preserve" text-anchor="start" font-family="Helvetica, Arial, sans-serif" font-size="17" id="svg_27" y="397.953124" x="15.000001" stroke-opacity="null" stroke-width="0" stroke="#000" fill="#ec6d1e">Light Detector</text>
  <text xml:space="preserve" text-anchor="start" font-family="Helvetica, Arial, sans-serif" font-size="8" id="svg_31" y="118.953125" x="271" stroke-opacity="null" stroke-width="0" stroke="#000" fill="#cccccc">green fluorescence</text>
  <text transform="rotate(-90 256.68750000000006,78.45312499999999) " xml:space="preserve" text-anchor="start" font-family="Helvetica, Arial, sans-serif" font-size="8" id="svg_33" y="80.953125" x="222" stroke-opacity="null" stroke-width="0" stroke="#000" fill="#cccccc">yellow fluorescence</text>
  <g stroke="null" opacity="0.45" id="svg_46">
   <g stroke="null" id="svg_44" transform="matrix(0.19518466501701312,0,0,0.19518466501701312,-851.9798120298566,-551.8177916285545) ">
    <path id="svg_45" fill-rule="evenodd" fill="#00ccff" d="m4770.408432,3500.266606l0,554.4q-5.9,84.45 -62.65,81.15q-56.8,-3.3 -59.35,-81.15l0,-554.4l-10,-13q68.3,-23.4 142,-1l-10,14"/>
   </g>
  </g>
  <g id="svg_43" stroke="null">
   <g transform="matrix(0.26142290102087046,0,0,0.26142290102087046,74.11142210830563,161.781801383498) " id="svg_41" stroke="null">
    <path d="m26.655991,-102.421226q-49.5,11.95 -103,0l-17,-56q70.75,-18.65 134,0l-14,56" fill="#333333" fill-rule="evenodd" id="svg_42"/>
   </g>
  </g>
  <g opacity="0.65" id="svg_37" stroke="null">
   <g transform="matrix(0.25061374311296214,0,0,0.25061374311296214,-670.9617315321243,-425.96011661800924) " id="svg_34" stroke="null">
    <path d="m3007.246204,2226.92819l0,419.95q-5.9,84.45 -62.65,81.15q-56.8,-3.3 -59.35,-81.15l0,-419.95l-10,-13q68.3,-23.4 142,-1l-10,14" fill="#999999" fill-rule="evenodd" id="svg_35"/>
    <path d="m3009.746204,2215.27819l-10,13l0,378.95q1.15,102.8 -14.6,56.75q-15.75,-46.1 0.6,-439.7q-26,-13.3 -81,-13q74.75,-9.85 105,4" fill="#ffffff" fill-rule="evenodd" id="svg_36"/>
   </g>
  </g>
  <text font-weight="bold" stroke="#ec6d1e" transform="matrix(2.1254518861738347,0,0,2.1254518861738347,-485.1724081800367,-201.57639568546222) " xml:space="preserve" text-anchor="start" font-family="Helvetica, Arial, sans-serif" font-size="17" id="svg_53" y="195.197038" x="431.250171" stroke-width="0" fill="#000000">2</text>
  <text stroke="#ec6d1e" transform="matrix(2.322315454483032,0,0,2.322315454483032,-572.9096993803978,-354.21938400715584) " font-weight="bold" xml:space="preserve" text-anchor="start" font-family="Helvetica, Arial, sans-serif" font-size="17" id="svg_54" y="279.872541" x="431.750171" stroke-width="0" fill="#000000">1</text>
 </g>
</svg>